<?xml version="1.0" encoding="UTF-8"?>
<svg id="Layer_1" data-name="Layer 1" xmlns="http://www.w3.org/2000/svg" viewBox="0 0 286 286">
  <defs>
    <style>
      .cls-1 {
        fill: none;
        stroke: #fff;
        stroke-linejoin: round;
        stroke-width: 10px;
      }

      .cls-2 {
        fill: #dfe4f4;
      }
    </style>
  </defs>
  <g id="Page-1">
    <g id="IMG_BTN_ATC_Tool_Measure" data-name="IMG BTN ATC Tool Measure">
      <rect id="Rectangle" class="cls-1" x="5" y="5" width="276" height="276"/>
    </g>
  </g>
  <g>
    <path class="cls-2" d="M128.31,117.29c-3.25-13.67-13.67-21.53-28.87-21.53-23.49,0-36.9,17.26-36.9,47.15s13.5,47.41,36.05,47.41,26.31-8.12,30.07-25.2h34c-3.84,32.29-28.02,52.28-63.21,52.28s-68.94-29.04-68.94-74.49,26.48-74.32,68.76-74.32,57.92,18.37,61.67,48.69h-32.63Z"/>
    <path class="cls-2" d="M255.5,214.24h-30.58v-97.55h-37.59v-19.65c28.36-.17,36.56-4.95,41.69-23.75h26.48v140.95Z"/>
  </g>
</svg>