<?xml version="1.0" encoding="UTF-8"?>
<svg id="Layer_1" data-name="Layer 1" xmlns="http://www.w3.org/2000/svg" viewBox="0 0 286 286">
  <defs>
    <style>
      .cls-1 {
        fill: none;
        stroke: #fff;
        stroke-linejoin: round;
        stroke-width: 10px;
      }

      .cls-2 {
        fill: #dfe4f4;
      }
    </style>
  </defs>
  <g id="Page-1">
    <g id="IMG_BTN_ATC_Tool_Measure" data-name="IMG BTN ATC Tool Measure">
      <rect id="Rectangle" class="cls-1" x="5" y="5" width="276" height="276"/>
    </g>
  </g>
  <g>
    <path class="cls-2" d="M104.31,104.28c-2.94-12.37-12.37-19.48-26.13-19.48-21.26,0-33.39,15.61-33.39,42.67s12.21,42.9,32.62,42.9,23.81-7.34,27.21-22.8h30.76c-3.48,29.22-25.35,47.3-57.2,47.3S15.8,168.6,15.8,127.48s23.96-67.24,62.22-67.24,52.4,16.62,55.81,44.06h-29.53,0Z"/>
    <path class="cls-2" d="M240.51,192.02h-91.98c3.09-25.35,10.67-35.71,45.45-62.22,12.75-9.89,18.16-18.16,18.16-27.44s-6.96-16.85-17.16-16.85-12.99,3.48-15.85,9.43c-1.55,3.25-2.32,7.11-2.71,14.69h-25.66c.39-13.29,2.47-22.03,7.34-29.37,8.12-12.37,20.71-18.55,37.87-18.55,26.67,0,44.83,16.85,44.83,41.12s-4.48,22.03-14.69,31.84c-4.79,4.64-8.5,7.34-26.13,20.1-9.43,6.8-12.75,9.66-15.85,13.91h56.42v23.19l-.08.15h.04Z"/>
  </g>
</svg>