<?xml version="1.0" encoding="UTF-8"?>
<svg id="Layer_1" data-name="Layer 1" xmlns="http://www.w3.org/2000/svg" viewBox="0 0 286 286">
  <defs>
    <style>
      .cls-1 {
        fill: none;
        stroke: #fff;
        stroke-linejoin: round;
        stroke-width: 10px;
      }

      .cls-2 {
        fill: #dfe4f3;
      }
    </style>
  </defs>
  <g id="Page-1">
    <g id="IMG_BTN_ATC_Tool_Measure" data-name="IMG BTN ATC Tool Measure">
      <rect id="Rectangle" class="cls-1" x="5" y="5" width="276" height="276"/>
    </g>
  </g>
  <path class="cls-2" d="M67.02,82.42h151.96v30.28h-27.41s-124.55.01-124.55.01v-30.29ZM98.22,150.78h89.55v-30.29h-89.55v30.29ZM120.21,240.53l45.58-25.29v-28.89l-45.59,25.01v29.17ZM143,274.15l22.79-31.12v-19.17l-42.6,23.62,19.81,26.67ZM120.21,202.74l45.59-25.01v-18.9h-45.59v43.9ZM204.6,33.24c-2.71,0-5.15,1.11-7.06,3.06-1.9,1.94-2.99,4.45-2.99,7.23s1.08,5.27,2.99,7.23c1.9,1.94,4.35,3.06,7.06,3.06s5.43-1.11,7.06-3.06c1.9-1.94,2.99-4.45,2.99-7.23s-1.08-5.56-2.99-7.23c-1.63-1.95-4.07-3.06-7.06-3.06ZM81.4,33.24c-2.71,0-5.15,1.11-7.06,3.06-1.9,1.94-2.99,4.45-2.99,7.23s1.08,5.27,2.99,7.23c1.9,1.94,4.35,3.06,7.06,3.06s5.15-1.11,7.06-3.06c1.9-1.94,2.99-4.45,2.99-7.23s-1.08-5.56-2.99-7.23c-1.91-1.95-4.35-3.06-7.06-3.06ZM270,11.85v63.07H16V11.85h254ZM98.77,43.52c0-5-1.9-9.44-5.15-12.79-3.25-3.33-7.6-5.27-12.49-5.27s-9.22,1.94-12.49,5.27c-3.25,3.33-5.15,7.78-5.15,12.79s1.9,9.44,5.15,12.79c3.25,3.33,7.6,5.27,12.49,5.27s9.22-1.94,12.49-5.27c3.25-3.33,5.15-8.06,5.15-12.79ZM160.64,43.52c0-5-1.9-9.44-5.15-12.79-3.25-3.33-7.6-5.27-12.49-5.27s-9.22,1.94-12.49,5.27c-3.25,3.33-5.15,7.78-5.15,12.79s1.9,9.44,5.15,12.79c3.25,3.33,7.6,5.27,12.49,5.27s9.22-1.94,12.49-5.27c2.98-3.33,5.15-8.06,5.15-12.79ZM222.23,43.52c0-5-1.9-9.44-5.15-12.79-3.25-3.33-7.6-5.27-12.49-5.27s-9.22,1.94-12.49,5.27c-3.25,3.33-5.15,7.78-5.15,12.79s1.9,9.44,5.15,12.79c3.25,3.33,7.6,5.27,12.49,5.27s9.22-1.94,12.49-5.27c3.25-3.33,5.15-8.06,5.15-12.79ZM143,33.24c-2.71,0-5.15,1.11-7.06,3.06-1.9,1.94-2.99,4.45-2.99,7.23s1.08,5.27,2.99,7.23c1.9,1.94,4.35,3.06,7.06,3.06s5.43-1.11,7.06-3.06c1.9-1.94,2.99-4.45,2.99-7.23s-1.08-5.56-2.99-7.23c-1.91-1.95-4.35-3.06-7.06-3.06Z"/>
</svg>