<?xml version="1.0" encoding="UTF-8"?>
<svg id="Layer_1" xmlns="http://www.w3.org/2000/svg" version="1.1" viewBox="0 0 286 286">
  <!-- Generator: Adobe Illustrator 29.8.2, SVG Export Plug-In . SVG Version: 2.1.1 Build 3)  -->
  <defs>
    <style>
      .st0 {
        fill: #00bfff;
      }

      .st0, .st1, .st2 {
        stroke: #000;
        stroke-miterlimit: 10;
      }

      .st3 {
        fill: none;
        stroke: #fff;
        stroke-linejoin: round;
        stroke-width: 10px;
      }

      .st1 {
        fill: #dfe4f3;
      }

      .st2 {
        fill: orange;
      }
    </style>
  </defs>
  <g id="Page-1">
    <g id="IMG_BTN_ATC_Tool_Measure">
      <rect id="Rectangle" class="st3" x="5" y="5" width="276" height="276"/>
    </g>
  </g>
  <rect class="st1" x="76.7" y="212.4" width="20.1" height="33.7"/>
  <rect class="st1" x="47" y="226.7" width="29.6" height="7"/>
  <path class="st0" d="M97.2,29.4c0-3.4-2.8-6.1-6.1-6.1H23.5c-3.4,0-6.1,2.8-6.1,6.1v153.6c0,3.4,2.8,6.1,6.1,6.1h67.6c3.4,0,6.1-2.8,6.1-6.1V29.4h0Z"/>
  <path class="st1" d="M262,192.9c0-3.4-2.8-6.2-6.2-6.2H101.9c-3.4,0-6.2,2.8-6.2,6.2v67.7c0,3.4,2.8,6.2,6.2,6.2h153.9c3.4,0,6.2-2.8,6.2-6.2v-67.7h0Z"/>
  <path class="st2" d="M273,136.5c0-51.5-40.3-93.4-91-96.8v-13.7c0-3.6-2.9-6.5-6.5-6.5s-2.4.3-3.4,1l-52,32.5c-3,1.9-4,5.9-2.1,9,.5.8,1.2,1.5,2.1,2.1l52,32.5c3.1,1.9,7.1,1,9-2.1.6-1,1-2.2,1-3.4v-11.7c29.1,3.4,52,27.1,52,57.2s2.9,6.5,6.5,6.5h26c3.6,0,6.5-2.9,6.5-6.5h-.1Z"/>
  <rect class="st0" x="39.8" y="188.5" width="33.6" height="20.1"/>
  <rect class="st0" x="54" y="208.7" width="7" height="29.6"/>
</svg>