<?xml version="1.0" encoding="UTF-8"?>
<svg width="311px" height="311px" viewBox="0 0 311 311" version="1.1" xmlns="http://www.w3.org/2000/svg" xmlns:xlink="http://www.w3.org/1999/xlink">
    <title>IMG_BTN_ATC_Edit_Tool_Table</title>
    <g id="Page-1" stroke="none" stroke-width="1" fill="none" fill-rule="evenodd">
        <g id="IMG_BTN_ATC_Edit_Tool_Table" transform="translate(5.128, 5.128)">
            <path d="M236.184623,158.870298 L236.184623,141.952612 L250.383706,129.459922 C251.952647,128.079708 252.460971,125.886038 251.651517,123.982563 L241.060666,99.0672965 C240.251878,97.1638216 238.303193,95.9679823 236.189953,96.0679601 L217.084182,97.0190484 L204.807801,85.056111 L205.783809,66.4388019 C205.891736,64.3814649 204.658569,62.4799376 202.705887,61.6918003 L177.137144,51.3707074 C175.18313,50.5825701 172.933315,51.0772658 171.515605,52.6061483 L158.696924,66.4433463 L141.335309,66.4433463 L128.515962,52.6061483 C127.099584,51.0772658 124.849103,50.5832193 122.895089,51.3707074 L97.3263465,61.6911511 C95.3729982,62.4792884 94.1404968,64.3808157 94.2484239,66.4381527 L95.2244318,85.0554618 L82.9480512,97.0183992 L63.8429463,96.0679601 C61.7337033,95.9660346 59.780355,97.1638216 58.9715676,99.0672965 L48.3807159,123.983212 C47.5719285,125.886687 48.0795858,128.080357 49.6485269,129.460571 L63.8476098,141.952612 L63.8476098,158.870947 L49.6485269,171.362988 C48.0795858,172.743202 47.5712623,174.936873 48.3807159,176.840347 L58.9715676,201.756263 C59.780355,203.659738 61.7323708,204.860771 63.8429463,204.755599 L82.9480512,203.804511 L95.2244318,215.767448 L94.2484239,234.384758 C94.1404968,236.442095 95.3736645,238.343622 97.3263465,239.131759 L122.895089,249.452203 C124.849103,250.240989 127.099584,249.746294 128.515962,248.216762 L141.335975,234.379564 L158.69759,234.379564 L171.516272,248.216762 C172.484285,249.261336 173.840703,249.823549 175.226434,249.823549 C175.869333,249.823549 176.518229,249.702797 177.137144,249.452852 L202.705887,239.132408 C204.659235,238.344271 205.891736,236.442744 205.783809,234.385407 L204.807801,215.768098 L217.084182,203.80516 L236.189953,204.756248 C238.305192,204.859472 240.252544,203.659738 241.060666,201.756912 L251.651517,176.840997 C252.460971,174.937522 251.952647,172.743851 250.383706,171.363637 L236.184623,158.870298 L236.184623,158.870298 Z M233.177986,194.855193 L215.376002,193.969025 C213.957626,193.89956 212.587217,194.41503 211.587892,195.388841 L196.170964,210.41214 C195.171639,211.3866 194.641996,212.727212 194.714614,214.103531 L195.624,231.450342 L176.57086,239.140848 L164.626255,226.248246 C163.678229,225.225745 162.331138,224.642108 160.917425,224.642108 L139.114808,224.642108 C137.701095,224.642108 136.353338,225.225745 135.405978,226.248246 L123.461373,239.140848 L104.408233,231.450342 L105.317619,214.103531 C105.389571,212.727212 104.860595,211.38595 103.860603,210.41214 L88.4436752,195.388841 C87.4443497,194.414381 86.0712765,193.898911 84.6555654,193.969025 L66.8542471,194.855193 L58.9622405,176.288522 L72.1926439,164.648889 C73.2419357,163.725717 73.8408648,162.412371 73.8408648,161.034754 L73.8408648,139.788806 C73.8408648,138.411188 73.2419357,137.097843 72.1926439,136.17467 L58.9622405,124.535038 L66.8542471,105.968367 L84.6555654,106.854534 C86.069944,106.924649 87.4436835,106.409178 88.4436752,105.434719 L103.860603,90.4114196 C104.860595,89.4376091 105.389571,88.0963474 105.317619,86.7200285 L104.408233,69.3732175 L123.461373,61.6827114 L135.405978,74.5753132 C136.353338,75.5978142 137.701095,76.1814513 139.114808,76.1814513 L160.917425,76.1814513 C162.331138,76.1814513 163.678895,75.5978142 164.626255,74.5753132 L176.57086,61.6827114 L195.624,69.3732175 L194.714614,86.7200285 C194.642662,88.0963474 195.171639,89.4376091 196.170964,90.4114196 L211.587892,105.434719 C212.587217,106.408529 213.959624,106.925947 215.376002,106.854534 L233.177986,105.968367 L241.069993,124.535038 L227.840255,136.17467 C226.790964,137.097843 226.191368,138.411188 226.191368,139.788806 L226.191368,161.034754 C226.191368,162.412371 226.790297,163.725717 227.840255,164.648889 L241.069993,176.288522 L233.177986,194.855193 L233.177986,194.855193 Z" id="Shape" fill="#FFFFFF" fill-rule="nonzero"></path>
            <path d="M149.685756,97 C119.532109,97 95,120.9051 95,150.288858 C95,179.672616 119.531442,203.578366 149.685756,203.578366 C179.839404,203.578366 204.370846,179.673265 204.370846,150.288858 C204.370846,120.904451 179.839404,97 149.685756,97 L149.685756,97 Z M149.685756,193.840261 C125.042389,193.840261 104.993255,174.303025 104.993255,150.288858 C104.993255,126.274691 125.042389,106.738105 149.685756,106.738105 C174.328457,106.738105 194.377591,126.27534 194.377591,150.288858 C194.377591,174.302376 174.329123,193.840261 149.685756,193.840261 Z" id="Shape" fill="#FFFFFF" fill-rule="nonzero"></path>
            <path d="M149.605976,116 C130.524189,116 115,131.127822 115,149.722408 C115,168.316995 130.524189,183.444817 149.605976,183.444817 C168.688429,183.444817 184.211952,168.316995 184.211952,149.722408 C184.211952,131.127822 168.688429,116 149.605976,116 L149.605976,116 Z M149.605976,173.706712 C136.034469,173.706712 124.993255,162.947404 124.993255,149.722408 C124.993255,136.497413 136.034469,125.738105 149.605976,125.738105 C163.177482,125.738105 174.218697,136.497413 174.218697,149.722408 C174.218697,162.947404 163.177482,173.706712 149.605976,173.706712 Z" id="Shape" fill="#FFFFFF" fill-rule="nonzero"></path>
            <path d="M0,0 L300,0 C300,0 300,300 300,300 C300,300 0,300 0,300 L0,0 Z" id="Path" stroke="#FFFFFF" stroke-width="10" stroke-linejoin="round"></path>
        </g>
    </g>
</svg>