<?xml version="1.0" encoding="UTF-8"?>
<svg id="Layer_1" data-name="Layer 1" xmlns="http://www.w3.org/2000/svg" viewBox="0 0 286 286">
  <defs>
    <style>
      .cls-1 {
        fill: none;
        stroke: #fff;
        stroke-linejoin: round;
        stroke-width: 10px;
      }

      .cls-2 {
        fill: #dfe4f4;
      }
    </style>
  </defs>
  <g id="Page-1">
    <g id="IMG_BTN_ATC_Tool_Measure" data-name="IMG BTN ATC Tool Measure">
      <rect id="Rectangle" class="cls-1" x="5" y="5" width="276" height="276"/>
    </g>
  </g>
  <g>
    <path class="cls-2" d="M119.92,119.49c-2.97-12.5-12.5-19.68-26.4-19.68-21.48,0-33.74,15.78-33.74,43.11s12.34,43.34,32.96,43.34,24.05-7.42,27.49-23.04h31.08c-3.51,29.52-25.62,47.8-57.79,47.8s-63.02-26.55-63.02-68.1,24.21-67.95,62.87-67.95,52.95,16.79,56.39,44.52c0,0-29.83,0-29.83,0Z"/>
    <path class="cls-2" d="M192.71,174.55c1.72,10.93,6.25,15.78,14.99,15.78,13.12,0,20.15-12.11,20.31-34.52-8.2,5.86-14.68,8.2-23.43,8.2-23.82,0-40.22-17.57-40.22-43.11s17.57-44.36,43.34-44.36,47.8,23.27,47.8,66.54-15.78,67.55-47.8,67.55-36.86-11.71-41-36.08h26.01ZM190.37,120.27c0,13.43,7.03,22.26,17.81,22.26s17.57-8.75,17.57-22.02-6.87-22.49-17.81-22.49-17.57,8.75-17.57,22.26h0Z"/>
  </g>
</svg>