<?xml version="1.0" encoding="UTF-8"?>
<svg id="Layer_1" data-name="Layer 1" xmlns="http://www.w3.org/2000/svg" viewBox="0 0 286 286">
  <defs>
    <style>
      .cls-1 {
        fill: none;
        stroke: #fff;
        stroke-linejoin: round;
        stroke-width: 10px;
      }

      .cls-2 {
        fill: #dfe4f4;
      }
    </style>
  </defs>
  <g id="Page-1">
    <g id="IMG_BTN_ATC_Tool_Measure" data-name="IMG BTN ATC Tool Measure">
      <rect id="Rectangle" class="cls-1" x="5" y="5" width="276" height="276"/>
    </g>
  </g>
  <g>
    <path class="cls-2" d="M119.03,119.73c-2.94-12.37-12.37-19.48-26.13-19.48-21.26,0-33.4,15.62-33.4,42.68s12.22,42.91,32.63,42.91,23.81-7.35,27.22-22.81h30.77c-3.48,29.23-25.36,47.32-57.22,47.32s-62.4-26.29-62.4-67.42,23.97-67.27,62.24-67.27,52.42,16.62,55.82,44.07c0,0-29.54,0-29.54,0Z"/>
    <path class="cls-2" d="M198.52,130.71c4.25.15,5.03.15,7.11.15,13.14,0,20.72-6.03,20.72-16.39s-6.8-15.31-16.39-15.31-12.53,3.09-15.62,8.12c-1.93,3.09-2.47,6.34-2.47,13.14h-25.67c.62-27.84,16.39-43.3,44.07-43.3s41.91,14.69,41.91,35.72-4.79,19.72-14.85,26.44c12.53,5.8,18.17,14.54,18.17,28.61,0,24.9-18.71,41.91-46.01,41.91s-45.46-16.86-45.77-45.62h26.13c.15,7.58.93,11.21,3.25,14.69,3.48,5.41,9.12,8.35,16.08,8.35,10.98,0,17.94-7.35,17.94-18.94s-6.8-18.17-20.72-18.17-4.25,0-7.73.15v-19.72l-.15.15Z"/>
  </g>
</svg>