<?xml version="1.0" encoding="UTF-8"?>
<svg width="286px" height="286px" viewBox="0 0 286 286" version="1.1" xmlns="http://www.w3.org/2000/svg" xmlns:xlink="http://www.w3.org/1999/xlink">
    <title>IMG_BTN_ATC_Tool_Measure</title>
    <g id="Page-1" stroke="none" stroke-width="1" fill="none" fill-rule="evenodd">
        <g id="IMG_BTN_ATC_Tool_Measure" transform="translate(5, 5)">
            <g id="XYZ" transform="translate(33, 184)" fill="#FFFFFF" fill-rule="nonzero">
                <polygon id="Path" points="0 70.4589844 25.78125 29.5898438 22.3876953 41.5771484 22.3876953 34.8144531 0.122070312 0 17.4804688 0 32.4462891 25.4150391 39.2578125 25.4150391 29.6875 31.1035156 47.8759766 0 64.3554688 0 41.2597656 35.0830078 41.2597656 41.8457031 37.7929688 29.9072266 64.0380859 70.4589844 47.2412109 70.4589844 31.7871094 45.7763672 24.9755859 45.7763672 34.765625 40.234375 15.9179688 70.4589844"></polygon>
                <polygon id="Path" points="101.105868 70.4589844 101.105868 44.140625 76.5697347 0 92.5121175 0 108.308016 30.1025391 108.649813 30.1025391 124.445711 0 140.388094 0 115.851961 44.140625 115.851961 70.4589844"></polygon>
                <polygon id="Path" points="154.872868 70.4589844 154.872868 60.8398438 190.712712 12.4511719 190.712712 12.1582031 155.702946 12.1582031 155.702946 0 208.266423 0 208.266423 9.59472656 172.573063 58.0078125 172.573063 58.3007812 209.267399 58.3007812 209.267399 70.4589844"></polygon>
            </g>
            <path d="M128.454515,68.1171685 C128.454515,68.1171685 128.720971,13.499086 128.720971,13.499086 L147.54549,13.499086 C147.54549,13.499086 147.54549,68.1171685 147.54549,68.1171685 L128.454515,68.1171685 Z" id="Path" stroke="#000000" stroke-width="0.720580431" fill="#FFFFFF" fill-rule="nonzero" transform="translate(138, 40.8081) scale(-1, 1) translate(-138, -40.8081)"></path>
            <path d="M128.803944,67.717079 C136.082718,67.717079 128.803944,67.717079 147.196056,67.717079 C147.196056,80.6477842 168.902236,67.717079 168.902236,93.5784429 L107.097765,93.5784429 C107.097765,67.717079 128.803953,80.6477842 128.803944,67.717079 Z" id="Path" stroke="#000000" stroke-width="1.17841616" fill="#FFFFFF" fill-rule="nonzero"></path>
            <polygon id="Path" stroke="#000000" stroke-width="1.58193522" fill="#FFFFFF" fill-rule="nonzero" points="187.51841 93.5784612 137.544794 145.46659 88.4815905 93.5784427 187.51841 93.5784612"></polygon>
            <path d="M105.410074,93.5784427 L151.332993,93.5784427 C141.673567,100.532001 134.259338,115.345694 134.259338,133.687895 L105.410074,104.871804 L105.410074,93.5784427 Z" id="Path" stroke="#000000" stroke-width="0.912096177" fill="#C1C1C1" fill-rule="nonzero"></path>
            <line x1="98.8808585" y1="104.841806" x2="142.289973" y2="104.841806" id="Path" stroke="#000000" stroke-width="0.515483863"></line>
            <path d="M163.710547,85.164802 C138.693049,99.0412292 128.371534,125.310939 137.582776,145.46659" id="Path" stroke="#000000" stroke-width="1.60137409"></path>
            <rect id="Rectangle" stroke="#000000" stroke-width="1.1809962" fill="#FFFFFF" fill-rule="nonzero" x="98.880861" y="85.1648" width="78.2382794" height="8.41364316"></rect>
            <rect id="Rectangle" stroke="#FFFFFF" stroke-width="10" stroke-linejoin="round" x="0" y="0" width="276" height="276"></rect>
        </g>
    </g>
</svg>