<?xml version="1.0" encoding="UTF-8"?>
<svg id="Layer_1" data-name="Layer 1" xmlns="http://www.w3.org/2000/svg" viewBox="0 0 286 286">
  <defs>
    <style>
      .cls-1 {
        fill: none;
        stroke: #fff;
        stroke-linejoin: round;
        stroke-width: 10px;
      }

      .cls-2 {
        fill: #dfe4f4;
      }
    </style>
  </defs>
  <g id="Page-1">
    <g id="IMG_BTN_ATC_Tool_Measure" data-name="IMG BTN ATC Tool Measure">
      <rect id="Rectangle" class="cls-1" x="5" y="5" width="276" height="276"/>
    </g>
  </g>
  <g>
    <path class="cls-2" d="M119.52,119.6c-2.95-12.44-12.44-19.59-26.28-19.59-21.38,0-33.59,15.7-33.59,42.92s12.28,43.15,32.81,43.15,23.95-7.39,27.37-22.94h30.94c-3.5,29.39-25.5,47.58-57.53,47.58s-62.74-26.43-62.74-67.8,24.1-67.64,62.59-67.64,52.71,16.72,56.13,44.32c0,0-29.7,0-29.7,0Z"/>
    <path class="cls-2" d="M255.5,170.13c0,23.95-18.27,40.27-44.94,40.27s-45.09-16.33-45.09-40.27,7-25.81,21.15-32.5c-11.66-5.44-17.26-14.38-17.26-26.59,0-20.06,16.95-34.21,41.21-34.21s41.05,14.15,41.05,34.21-5.83,21.15-17.26,26.59c14.15,6.61,21.15,17.26,21.15,32.5ZM191.36,168.35c0,11.66,7.93,20.06,19.28,20.06s19.05-8.4,19.05-19.83-7.77-20.21-19.28-20.21-19.05,8.4-19.05,20.06v-.08ZM195.25,112.99c0,9.17,6.22,15.39,15.39,15.39s15.16-6.22,15.16-15.16-6.06-15.55-15.39-15.55-15.16,6.22-15.16,15.39v-.08Z"/>
  </g>
</svg>