<?xml version="1.0" encoding="UTF-8"?>
<svg id="Layer_1" data-name="Layer 1" xmlns="http://www.w3.org/2000/svg" viewBox="0 0 286 286">
  <defs>
    <style>
      .cls-1 {
        fill: #39ff14;
      }

      .cls-2 {
        fill: none;
        stroke: #fff;
        stroke-linejoin: round;
        stroke-width: 10px;
      }

      .cls-3 {
        fill: #dfe4f3;
      }
    </style>
  </defs>
  <g id="Page-1">
    <g id="IMG_BTN_ATC_Tool_Measure" data-name="IMG BTN ATC Tool Measure">
      <rect id="Rectangle" class="cls-2" x="5" y="5" width="276" height="276"/>
    </g>
  </g>
  <g>
    <path class="cls-3" d="M161.6,48.2c0-.89-.48-1.73-1.26-2.21L110.65,12.65c-.97-.62-2.2-.73-3.26-.27-1.04.44-1.71,1.43-1.72,2.53v15.25H31.09c-2.57,0-4.66,2.02-4.66,4.51v72.19c0,2.49,2.09,4.51,4.66,4.51h27.97c2.57,0,4.66-2.02,4.66-4.51v-40.61h41.95v15.25c.01,1.1.69,2.08,1.72,2.53,1.06.46,2.29.35,3.26-.27l49.69-33.34c.78-.49,1.25-1.32,1.26-2.21h0Z"/>
    <path class="cls-3" d="M105.66,219.66h-41.95v-40.61h15.75c1.13,0,2.15-.67,2.61-1.67.47-1.03.37-2.22-.28-3.16l-34.45-48.1c-.76-1.25-2.41-1.66-3.7-.93-.4.23-.73.55-.96.93l-34.35,48.1c-.64.94-.75,2.13-.28,3.16.46,1,1.48,1.66,2.61,1.67h15.75v72.19c0,2.49,2.09,4.51,4.66,4.51h74.58c2.57,0,4.66-2.02,4.66-4.51v-27.07c0-2.49-2.09-4.51-4.66-4.51h0Z"/>
    <path class="cls-3" d="M254.82,174.54h-27.97c-2.57,0-4.66,2.02-4.66,4.51v40.61h-41.95v-15.25c0-1.1-.69-2.08-1.72-2.53-1.06-.46-2.29-.35-3.26.27l-49.69,33.34c-1.29.73-1.72,2.34-.96,3.58.23.38.56.7.96.93l49.69,33.34c.97.62,2.2.73,3.26.27,1.04-.44,1.71-1.43,1.72-2.53v-15.34h74.58c2.57,0,4.66-2.02,4.66-4.51v-72.19c0-2.49-2.09-4.51-4.66-4.51h0Z"/>
    <path class="cls-3" d="M275.24,106.86h-15.75V34.67c0-2.49-2.09-4.51-4.66-4.51h-74.58c-2.57,0-4.66,2.02-4.66,4.51v27.07c0,2.49,2.09,4.51,4.66,4.51h41.95v40.61h-15.75c-1.13.01-2.15.67-2.61,1.67-.47,1.03-.37,2.22.28,3.16l34.45,48.1c.76,1.25,2.41,1.66,3.7.93.4-.23.73-.55.96-.93l34.45-48.1c.64-.94.75-2.13.28-3.16-.47-1.03-1.54-1.69-2.7-1.67h-.02Z"/>
  </g>
  <path class="cls-1" d="M194.39,87.35c-21.91,7.11-48.02,43.27-73.04,80.4-10.62-18.77-21.87-25.04-33.5-18.62-1.44.79-2.38,2.31-2.5,4.02-.12,1.73.62,3.39,1.95,4.41,8.44,6.46,17.19,17.92,27.59,36.06h0c1.86,3.28,5.24,5.29,8.87,5.27h.17c3.75-.04,7.19-2.19,9-5.62,10.12-19.26,21.25-37.92,33.31-55.89,9.89-14.75,20.91-28.62,32.96-41.48,1.62-1.67,1.92-4.29.72-6.31-1.12-2.01-3.43-2.94-5.55-2.23h.02Z"/>
</svg>