<?xml version="1.0" encoding="UTF-8"?>
<svg id="Layer_1" data-name="Layer 1" xmlns="http://www.w3.org/2000/svg" viewBox="0 0 286 286">
  <defs>
    <style>
      .cls-1 {
        fill: none;
        stroke: #fff;
        stroke-linejoin: round;
        stroke-width: 10px;
      }

      .cls-2 {
        fill: #dfe4f4;
      }

      .cls-3 {
        fill: #ef3b64;
      }
    </style>
  </defs>
  <g id="Page-1">
    <g id="IMG_BTN_ATC_Tool_Measure" data-name="IMG BTN ATC Tool Measure">
      <rect id="Rectangle" class="cls-1" x="5" y="5" width="276" height="276"/>
    </g>
  </g>
  <path class="cls-2" d="M267.97,151.62c0,68.91-56.07,124.99-124.99,124.99S18,220.53,18,151.62c0-49.7,29.43-94.7,75-114.6,4.22-1.81,8.87-1.94,13.19-.22,4.27,1.68,7.67,4.91,9.53,9.14,3.79,8.7-.22,18.87-8.92,22.72-32.97,14.4-54.31,46.99-54.31,82.96,0,49.91,40.6,90.51,90.51,90.51s90.51-40.6,90.51-90.51c0-35.99-21.33-68.57-54.31-82.96-8.7-3.83-12.72-14.01-8.92-22.72,1.85-4.22,5.26-7.45,9.53-9.14,4.32-1.72,8.97-1.6,13.19.25,45.55,19.87,75,64.86,75,114.56h-.03Z"/>
  <path class="cls-2" d="M125.76,91.28V26.63c0-9.53,7.71-17.24,17.24-17.24s17.24,7.71,17.24,17.24v64.65c0,9.53-7.71,17.24-17.24,17.24s-17.24-7.71-17.24-17.24Z"/>
  <path class="cls-3" d="M173.17,186.11h-60.34c-9.5,0-17.24-7.73-17.24-17.24s7.73-17.24,17.24-17.24h60.34c9.5,0,17.24,7.73,17.24,17.24s-7.73,17.24-17.24,17.24Z"/>
</svg>