<?xml version="1.0" encoding="UTF-8"?>
<svg id="Layer_1" data-name="Layer 1" xmlns="http://www.w3.org/2000/svg" viewBox="0 0 286 286">
  <defs>
    <style>
      .cls-1 {
        fill: none;
        stroke: #fff;
        stroke-linejoin: round;
        stroke-width: 10px;
      }

      .cls-2 {
        fill: #dfe4f4;
      }

      .cls-3 {
        fill: #ef3b64;
      }
    </style>
  </defs>
  <g id="Page-1">
    <g id="IMG_BTN_ATC_Tool_Measure" data-name="IMG BTN ATC Tool Measure">
      <rect id="Rectangle" class="cls-1" x="5" y="5" width="276" height="276"/>
    </g>
  </g>
  <path class="cls-2" d="M146.37,5.42c-1.31-1.86-3.87-2.32-5.74-1.01-.39.28-.73.62-1.01,1.01l-35.93,51.36c-1.3,1.86-.85,4.43,1.01,5.73.69.48,1.52.74,2.36.74h15.85v34.08s.04-.03.07-.04c11.99-8.42,27.97-8.43,39.99-.04.03.02.06.03.09.05v-34.05h15.85c2.27,0,4.12-1.84,4.12-4.11,0-.85-.26-1.67-.74-2.36L146.37,5.42Z"/>
  <path class="cls-2" d="M264.76,123.29l-35.93-51.36c-1.3-1.86-3.87-2.31-5.73-1.01-.39.28-.74.62-1.01,1.01l-35.93,51.36c-1.3,1.86-.84,4.43,1.02,5.73.69.48,1.51.74,2.36.74h15.85v98.35c0,11.09,8.99,20.07,20.07,20.07s20.07-8.99,20.07-20.07v-98.35h15.85c2.27,0,4.11-1.84,4.11-4.11,0-.85-.26-1.67-.74-2.36h0Z"/>
  <path class="cls-2" d="M63.91,71.93c-1.3-1.86-3.87-2.31-5.73-1.01-.39.28-.74.62-1.01,1.01l-35.93,51.36c-1.3,1.86-.85,4.42,1.01,5.72.69.49,1.52.75,2.36.74h15.85v98.35c0,11.09,8.99,20.07,20.07,20.07s20.07-8.99,20.07-20.07v-98.35h15.85c2.27,0,4.11-1.84,4.11-4.11,0-.84-.26-1.67-.74-2.36l-35.93-51.36Z"/>
  <path class="cls-2" d="M172.38,125.82c0-16.22-13.15-29.38-29.38-29.37-16.22,0-29.37,13.15-29.37,29.37v89.87c-14.83,16.22-13.7,41.4,2.52,56.23,16.22,14.83,41.4,13.7,56.23-2.52,13.9-15.2,13.9-38.5,0-53.7v-89.87Z"/>
  <path class="cls-2" d="M143,260.55c-9.94,0-18.01-8.06-18.01-18,0-8.36,5.75-15.63,13.9-17.53v-99.66c0-2.27,1.84-4.12,4.11-4.12,2.27,0,4.12,1.84,4.12,4.11h0v99.68c9.68,2.27,15.69,11.96,13.42,21.64-1.91,8.14-9.17,13.9-17.53,13.9Z"/>
  <path class="cls-3" d="M143,260.55c-9.94,0-18.01-8.06-18.01-18,0-8.36,5.75-15.63,13.9-17.53v-99.66c0-2.27,1.84-4.12,4.11-4.12,2.27,0,4.12,1.84,4.12,4.11h0v99.68c9.68,2.27,15.69,11.96,13.42,21.64-1.91,8.14-9.17,13.9-17.53,13.9Z"/>
  <circle class="cls-3" cx="143" cy="243.41" r="27.7"/>
  <rect class="cls-3" x="136" y="121.23" width="25.01" height="101.73"/>
  <rect class="cls-3" x="126.81" y="121.23" width="9.19" height="101.73"/>
</svg>