<?xml version="1.0" encoding="UTF-8"?>
<svg width="311px" height="310px" viewBox="0 0 311 310" version="1.1" xmlns="http://www.w3.org/2000/svg" xmlns:xlink="http://www.w3.org/1999/xlink">
    <title>IMG_BTN_ATC_Tool_1</title>
    <g id="Page-1" stroke="none" stroke-width="1" fill="none" fill-rule="evenodd">
        <g id="IMG_BTN_ATC_Tool_1" transform="translate(5.5, 5)" stroke="#FFFFFF">
            <rect id="Rectangle" stroke-width="10" stroke-linejoin="round" x="0" y="0" width="300" height="300"></rect>
            <g id="8" transform="translate(76, 41)" fill="#FFFFFF" fill-rule="nonzero" stroke-width="4">
                <path d="M73.9746094,-2 C95.7814863,-2 112.616864,3.68235258 124.560834,14.873551 C136.611551,26.1647694 142.625,39.8138114 142.625,55.8105469 C142.625,62.9663297 141.051712,70.6545648 137.876251,78.8704389 C134.960224,86.4150796 129.008557,93.1053302 119.920696,98.863051 C129.270716,104.690372 136.410417,112.144461 141.355401,121.210264 C146.784844,131.164244 149.509766,142.272688 149.509766,154.541016 C149.509766,172.978356 142.690627,188.674172 129.037365,201.6221 C115.476489,214.482413 96.5613455,220.994141 72.2167969,220.994141 C47.8190974,220.994141 29.4065222,214.422741 16.8796646,201.495002 C4.29821049,188.611593 -2,172.962323 -2,154.541016 C-2,142.265244 0.801660346,131.150002 6.38532171,121.189957 C11.4686955,112.122317 18.6792357,105.077096 28.0255057,100.063032 C18.935611,93.4857093 12.9828448,86.3991684 10.0729678,78.8704389 C6.8975072,70.6545648 5.32421875,62.9663297 5.32421875,55.8105469 C5.32421875,39.8138114 11.3376677,26.1647694 23.3883851,14.873551 C35.3323547,3.68235258 52.1677324,-2 73.9746094,-2 Z M73.9746094,120.652344 C65.2169296,120.652344 58.2275308,123.220305 53.0623062,128.47695 C47.8580777,133.773288 45.359375,141.567142 45.359375,151.757812 C45.359375,161.592005 47.8315365,169.266856 52.9460202,174.703874 C58.0148006,180.092308 65.0467279,182.716797 73.9746094,182.716797 C82.9024908,182.716797 89.9344181,180.092308 95.0031986,174.703874 C100.117682,169.266856 102.589844,161.592005 102.589844,151.757812 C102.589844,141.567142 100.091141,133.773288 94.8869125,128.47695 C89.7216879,123.220305 82.7322892,120.652344 73.9746094,120.652344 Z M73.9746094,35.6914062 C66.2027657,35.6914062 60.0830306,37.8137559 55.6866745,42.210112 C51.2903184,46.6064681 49.1679688,52.7262032 49.1679688,60.4980469 C49.1679688,67.629755 51.3434583,73.4735818 55.7884778,78.0094676 C60.1314346,82.5333809 66.2180587,84.71875 73.9746094,84.71875 C81.8181929,84.71875 87.9294747,82.5404895 92.2267589,78.0170323 C96.5272851,73.4901627 98.6347656,67.6382077 98.6347656,60.4980469 C98.6347656,52.719994 96.5570862,46.5952204 92.2478904,42.1953047 C87.9456309,37.8024713 81.8270697,35.6914062 73.9746094,35.6914062 Z" id="Shape"></path>
            </g>
        </g>
    </g>
</svg>