<?xml version="1.0" encoding="UTF-8"?>
<svg id="Layer_1" data-name="Layer 1" xmlns="http://www.w3.org/2000/svg" viewBox="0 0 286 286">
  <defs>
    <style>
      .cls-1 {
        fill: #00bfff;
      }

      .cls-2 {
        fill: none;
        stroke: #fff;
        stroke-linejoin: round;
        stroke-width: 10px;
      }

      .cls-3 {
        fill: #dfe4f4;
      }
    </style>
  </defs>
  <g id="Page-1">
    <g id="IMG_BTN_ATC_Tool_Measure" data-name="IMG BTN ATC Tool Measure">
      <rect id="Rectangle" class="cls-2" x="5" y="5" width="276" height="276"/>
    </g>
  </g>
  <g>
    <path class="cls-1" d="M104.99,207.63c-24.52,15.29-54.6,25.46-91.65,25.46v40.04c50.07,0,89.83-15.18,121.18-37.28-10.88-8.73-20.7-18.26-29.52-28.22h0Z"/>
    <path class="cls-1" d="M178.95,194.38c25.42-30.56,41.64-64.14,51.28-89.15l42.44,17.75-19.95-110.11-99.74,60.06,40.86,17.09c-8.04,21.82-21.92,51.65-44.27,78.45,8.58,9.43,18.37,18.21,29.38,25.92h0Z"/>
    <path class="cls-3" d="M172.36,201.99c-11.02-7.84-20.73-16.76-29.36-26.18-26.15-28.56-42.04-61.94-50.83-85.79l40.86-17.1L33.28,12.87,13.33,122.98l42.44-17.75c10.44,27.1,28.61,64.27,57.86,96.76,8.77,9.74,18.5,19.06,29.36,27.55,32.58,25.49,74.96,43.59,129.67,43.59v-40.04c-41.49,0-74.35-12.66-100.3-31.1h0Z"/>
  </g>
</svg>