<?xml version="1.0" encoding="UTF-8"?>
<svg id="Layer_1" data-name="Layer 1" xmlns="http://www.w3.org/2000/svg" viewBox="0 0 286 286">
  <defs>
    <style>
      .cls-1 {
        fill: none;
        stroke: #fff;
        stroke-linejoin: round;
        stroke-width: 10px;
      }

      .cls-2 {
        fill: #dfe4f3;
      }
    </style>
  </defs>
  <g id="Page-1">
    <g id="IMG_BTN_ATC_Tool_Measure" data-name="IMG BTN ATC Tool Measure">
      <rect id="Rectangle" class="cls-1" x="5" y="5" width="276" height="276"/>
    </g>
  </g>
  <g>
    <path class="cls-2" d="M212.39,226.76H64.44V80.15h15.75c1.13-.01,2.15-.67,2.61-1.67.47-1.03.37-2.22-.28-3.16L48.08,27.22c-.76-1.25-2.41-1.66-3.7-.93-.4.23-.73.55-.96.93L9.07,75.32c-.64.94-.75,2.13-.28,3.16.46,1,1.48,1.66,2.61,1.67h15.75v178.19c0,2.49,2.09,4.51,4.66,4.51h180.58c2.57,0,4.66-2.02,4.66-4.51v-27.07c0-2.49-2.09-4.51-4.66-4.51Z"/>
    <path class="cls-2" d="M31.78,75.64h27.97c2.57,0,4.66,2.02,4.66,4.51v146.61h147.95v-15.25c.01-1.1.69-2.08,1.72-2.53,1.06-.46,2.29-.35,3.26.27l49.69,33.34c1.29.73,1.72,2.34.96,3.58-.23.38-.56.7-.96.93l-49.69,33.34c-.97.62-2.2.73-3.26.27-1.04-.44-1.71-1.43-1.72-2.53v-15.34H31.78c-2.57,0-4.66-2.02-4.66-4.51V80.15c0-2.49,2.09-4.51,4.66-4.51Z"/>
    <path class="cls-2" d="M76.76,257.79l50.85-73.99,13.17,8.65c.95.61,2.17.63,3.1.04.96-.6,1.52-1.66,1.5-2.79l-2.38-59.11c.05-1.46-1.1-2.71-2.58-2.81-.46-.03-.91.06-1.31.25l-55.2,21.28c-1.05.43-1.8,1.37-1.97,2.49-.17,1.12.35,2.26,1.34,2.88l13.17,8.65-57.93,86.75"/>
  </g>
  <path class="cls-2" d="M250.61,176.7l-7.3-13.4c-2.9-5.2-4.8-8.8-6.7-12.7h-.3c-1.6,3.9-3.4,7.5-6.1,12.7l-6.7,13.4h-14.1l20-34.1-19.2-33.3h14.1l7.3,13.9c2.2,4.2,3.8,7.5,5.6,11.3h.2c1.8-4.2,3.2-7.2,5.3-11.3l7.2-13.9h14.1l-19.7,32.9,20.5,34.5h-14.2Z"/>
  <path class="cls-2" d="M151.73,112.88l34.5-50.1v-.3h-31.4v-10.2h47.4v7.2l-34,49.6v.4h34.5v10.2h-51v-6.8Z"/>
  <path class="cls-2" d="M117.02,85.98v-28.1l-21.3-39.3h14l8.1,17.3c2.3,5,4,8.8,5.8,13.4h.2c1.7-4.3,3.6-8.5,5.9-13.4l8.1-17.3h13.9l-22.4,39v28.4h-12.3Z"/>
</svg>