<?xml version="1.0" encoding="UTF-8"?>
<svg width="311px" height="310px" viewBox="0 0 311 310" version="1.1" xmlns="http://www.w3.org/2000/svg" xmlns:xlink="http://www.w3.org/1999/xlink">
    <title>IMG_BTN_ATC_Tool_1</title>
    <g id="Page-1" stroke="none" stroke-width="1" fill="none" fill-rule="evenodd">
        <g id="IMG_BTN_ATC_Tool_1" transform="translate(5.5, 5)" stroke="#FFFFFF">
            <rect id="Rectangle" stroke-width="10" stroke-linejoin="round" x="0" y="0" width="300" height="300"></rect>
            <g id="3" transform="translate(77, 41)" fill="#FFFFFF" fill-rule="nonzero" stroke-width="4">
                <path d="M72.5097656,-2 C93.3709857,-2 110.166675,3.44459199 122.944468,14.2180257 C135.846138,25.0959045 142.332031,39.6810898 142.332031,58.0078125 C142.332031,71.0311609 138.441376,82.0068745 130.706068,90.963506 C127.276634,94.8930662 123.740023,97.9397705 120.10911,100.123159 C123.495537,101.719845 127.573088,104.62874 132.316384,108.982195 C143.347161,119.203373 148.923828,133.149343 148.923828,150.878906 C148.923828,169.357231 142.529054,185.604951 129.723354,199.615893 C116.939774,213.602633 98.0512376,220.701172 72.9492188,220.701172 C41.9715395,220.701172 20.5763931,210.44958 8.53666303,190.283032 C1.98721736,179.159444 -1.57612224,164.492979 -2.0684242,146.242188 L43.040616,146.242187 C42.8179977,155.277633 44.0806688,162.689743 46.9094427,168.448344 C49.2560388,173.186664 52.5512461,176.752597 56.8184538,179.123267 C61.1683876,181.539897 66.5025964,182.716797 72.8027344,182.716797 C80.4891091,182.716797 87.1901955,180.082999 92.9085823,174.822083 C98.6415385,169.547764 101.417969,161.92714 101.417969,152.050781 C101.417969,145.491403 100.124204,140.006654 97.4604887,135.620709 C94.840503,131.306767 90.8957282,128.086362 85.6685156,125.92336 C79.0773012,123.226954 68.4964871,122.000066 53.9570313,122.125963 L53.9570313,88.2551318 C68.1913188,88.1614282 78.0709928,86.9478373 83.5473941,84.4585639 C87.782828,82.585939 90.9563432,79.777295 93.0661248,76.0018963 C95.2404121,72.1110664 96.2910156,67.2288112 96.2910156,61.3769531 C96.2910156,53.8441679 94.1335546,47.6935264 89.7239453,42.9656979 C85.3340643,38.2590213 79.1308051,35.984375 71.1914062,35.984375 C62.1079537,35.984375 55.3722902,38.7579173 51.1237276,44.543194 C46.3543593,50.9025209 44.3191468,59.5395732 44.8415032,70.4082031 L1.7512231,70.4082031 C1.97757367,58.8969774 3.84068848,48.006171 7.33508915,37.7347509 C10.8972128,29.0735628 16.4168744,21.1763492 23.9567332,13.9380847 C29.6567022,8.74610681 36.3769569,4.79771361 44.1624262,2.06774386 C51.8617036,-0.632002754 61.3084258,-2 72.5097656,-2 Z" id="Path"></path>
            </g>
        </g>
    </g>
</svg>