<?xml version="1.0" encoding="UTF-8"?>
<svg width="311px" height="310px" viewBox="0 0 311 310" version="1.1" xmlns="http://www.w3.org/2000/svg" xmlns:xlink="http://www.w3.org/1999/xlink">
    <title>IMG_BTN_ATC_Tool_1</title>
    <g id="Page-1" stroke="none" stroke-width="1" fill="none" fill-rule="evenodd">
        <g id="IMG_BTN_ATC_Tool_1" transform="translate(5.5, 5)">
            <rect id="Rectangle" stroke="#FFFFFF" stroke-width="10" stroke-linejoin="round" x="0" y="0" width="300" height="300"></rect>
            <g id="0" transform="translate(74, 37)" fill="#FFFFFF" fill-rule="nonzero">
                <path d="M76,227 C47.9306667,227 28.2466667,217.187611 16.948,197.562834 C5.64933333,177.938057 0,149.967692 0,113.651738 C0,77.3357843 5.64933333,49.3148396 16.948,29.5889037 C28.2466667,9.86296791 47.9306667,0 76,0 C104.069333,0 123.778667,9.86296791 135.128,29.5889037 C146.376,49.3148396 152,77.3357843 152,113.651738 C152,149.967692 146.350667,177.938057 135.052,197.562834 C123.753333,217.187611 104.069333,227 76,227 Z M101.384,171.615642 C105.336,158.262701 107.312,138.941399 107.312,113.651738 C107.312,87.1481729 105.310667,67.5233957 101.308,54.7774064 C97.3053333,42.0314171 88.8693333,35.6584225 76,35.6584225 C63.1306667,35.6584225 54.6186667,42.0314171 50.464,54.7774064 C46.3093333,67.5233957 44.232,87.1481729 44.232,113.651738 C44.232,138.941399 46.3093333,158.28799 50.464,171.691511 C54.6186667,185.095031 63.1306667,191.796791 76,191.796791 C88.8693333,191.796791 97.3306667,185.069742 101.384,171.615642 Z" id="Shape"></path>
            </g>
        </g>
    </g>
</svg>