<?xml version="1.0" encoding="UTF-8"?>
<svg id="Layer_1" data-name="Layer 1" xmlns="http://www.w3.org/2000/svg" viewBox="0 0 286 286">
  <defs>
    <style>
      .cls-1 {
        fill: none;
        stroke: #fff;
        stroke-linejoin: round;
        stroke-width: 10px;
      }

      .cls-2 {
        fill: #dfe4f3;
      }
    </style>
  </defs>
  <g id="Page-1">
    <g id="IMG_BTN_ATC_Tool_Measure" data-name="IMG BTN ATC Tool Measure">
      <rect id="Rectangle" class="cls-1" x="5" y="5" width="276" height="276"/>
    </g>
  </g>
  <g>
    <path class="cls-2" d="M112.19,246.18c-5.32-1.49-10.57-3.4-15.62-5.7-4.53-2.04-9.88-.07-11.97,4.4-2.08,4.48-.09,9.79,4.44,11.84,5.9,2.67,12.03,4.91,18.25,6.65.82.23,1.64.34,2.46.34,3.93,0,7.56-2.57,8.68-6.51,1.36-4.75-1.43-9.68-6.23-11.02Z"/>
    <path class="cls-2" d="M57.43,210.4c-3.13-3.82-8.8-4.42-12.7-1.31-3.87,3.1-4.47,8.73-1.33,12.56,4.07,4.96,8.55,9.65,13.34,13.95,1.73,1.55,3.9,2.32,6.07,2.32,2.45,0,4.9-.99,6.68-2.93,3.35-3.65,3.08-9.3-.62-12.62-4.1-3.68-7.95-7.71-11.44-11.97Z"/>
    <path class="cls-2" d="M161.69,248.36c-5.44,1.01-11,1.61-16.55,1.79-4.98.16-8.89,4.28-8.73,9.21.15,4.83,4.16,8.65,9.01,8.65.1,0,.19,0,.3,0,6.46-.2,12.96-.91,19.3-2.08,4.9-.91,8.13-5.58,7.2-10.43-.91-4.84-5.63-8.02-10.54-7.13Z"/>
    <path class="cls-2" d="M35.84,166.3c-1.08-4.81-5.92-7.81-10.77-6.77-4.87,1.07-7.93,5.85-6.84,10.66,1.4,6.23,3.31,12.41,5.68,18.38,1.39,3.52,4.8,5.67,8.4,5.67,1.1,0,2.21-.2,3.3-.62,4.64-1.8,6.93-6.99,5.1-11.58-2.02-5.11-3.66-10.4-4.87-15.74Z"/>
    <path class="cls-2" d="M250.72,186.72c-4.48-2.2-9.87-.4-12.1,4.01-2.48,4.9-5.35,9.65-8.56,14.12-2.88,4.02-1.93,9.6,2.13,12.45,1.59,1.11,3.41,1.65,5.22,1.65,2.83,0,5.61-1.31,7.37-3.76,3.75-5.22,7.11-10.77,9.99-16.49,2.23-4.41.41-9.78-4.05-11.98Z"/>
    <path class="cls-2" d="M206.94,228.46c-4.42,3.31-9.13,6.31-13.99,8.92-4.38,2.35-6.01,7.77-3.63,12.11,1.63,2.99,4.73,4.68,7.94,4.68,1.45,0,2.93-.34,4.29-1.08,5.67-3.04,11.15-6.54,16.3-10.4,3.97-2.98,4.75-8.58,1.74-12.51-3.01-3.93-8.67-4.71-12.65-1.72Z"/>
    <path class="cls-2" d="M141.61,18c-25.85,0-51.11,7.93-72.22,22.49v-4.63c0-4.93-4.04-8.93-9.03-8.93s-9.03,4-9.03,8.93v26.79c0,4.93,4.04,8.93,9.03,8.93h27.08c4.99,0,9.03-4,9.03-8.93s-4.04-8.93-9.03-8.93h-5.5c17.63-11.54,38.41-17.86,59.67-17.86,59.74,0,108.34,48.08,108.34,107.17,0,5.52-.42,11.04-1.27,16.42-.76,4.87,2.61,9.44,7.54,10.19.47.07.93.1,1.39.1,4.38,0,8.23-3.15,8.91-7.57.98-6.28,1.48-12.72,1.48-19.15,0-68.94-56.7-125.03-126.39-125.03Z"/>
    <path class="cls-2" d="M143,62.64c-44.31,0-80.36,36.05-80.36,80.36s36.05,80.36,80.36,80.36,80.36-36.05,80.36-80.36-36.05-80.36-80.36-80.36Z"/>
  </g>
</svg>