<svg id="eOx1qldbDEC1" xmlns="http://www.w3.org/2000/svg" xmlns:xlink="http://www.w3.org/1999/xlink" viewBox="0 0 300 300" shape-rendering="geometricPrecision" text-rendering="geometricPrecision"><defs><radialGradient id="eOx1qldbDEC3-fill" cx="0" cy="0" r="0.5" spreadMethod="pad" gradientUnits="objectBoundingBox" gradientTransform="translate(0.5 0.5)"><stop id="eOx1qldbDEC3-fill-0" offset="0%" stop-color="#aaa"/><stop id="eOx1qldbDEC3-fill-1" offset="23%" stop-color="#9f9f9f"/><stop id="eOx1qldbDEC3-fill-2" offset="48%" stop-color="#8f8f8f"/><stop id="eOx1qldbDEC3-fill-3" offset="83%" stop-color="#737373"/><stop id="eOx1qldbDEC3-fill-4" offset="100%" stop-color="#6a6a6a"/></radialGradient><radialGradient id="eOx1qldbDEC4-fill" cx="0" cy="0" r="0.5" spreadMethod="pad" gradientUnits="objectBoundingBox" gradientTransform="translate(0.5 0.5)"><stop id="eOx1qldbDEC4-fill-0" offset="0%" stop-color="#fff"/><stop id="eOx1qldbDEC4-fill-1" offset="76%" stop-color="#fff"/><stop id="eOx1qldbDEC4-fill-2" offset="100%" stop-color="#fff"/></radialGradient></defs><rect width="300" height="300" rx="0" ry="0" fill="#707070" stroke-width="0"/><rect width="300" height="300" rx="0" ry="0" fill="url(#eOx1qldbDEC3-fill)" stroke-width="0"/><path d="M22.02369,-7.592545L34.042701,-0.24412c.000002,1.603295-.000005,5.344308,0,8.388745h-24.529202C9.5135,5.10019,9.265561,2.027211,9.5135,-0.24412l12.51019-7.348425Z" transform="matrix(6.844719 0 0 9.408326 32.640306 198.665616)" fill="url(#eOx1qldbDEC4-fill)" stroke-width="0"/><path d="M2.456331,0c.823686,0,0,0,2.081302,0c0,1.392336,2.456331-.000001,2.456331,2.784667h-6.993964C0,-0.000002,2.456332,1.392336,2.456331,0Z" transform="matrix(9.786321 0 0 7.145682 46.104301 74.103737)" fill="#fff" stroke="#000" stroke-width="0.13"/><path d="M8.884528,12.377186l-3.443269,5.61103-3.38054-5.611032l6.823809.000002Z" transform="matrix(12.809913 0 0 9.132842 10.223057-9.329452)" fill="#c1c1c1" stroke="#000" stroke-width="0.13"/><path d="M0.803601,-4.363623c-1.961227,1.718123-2.851538,6.027748-2.228307,8.67845" transform="matrix(10.186384 0 0 6.180366 94.373582 127.140098)" fill="none" stroke="#000" stroke-width="0.15"/><rect width="10.76651" height="0.794119" rx="0" ry="0" transform="matrix(6.723305 0 0 12.224026 44.133624 94.002082)" fill="#fff" stroke="#000" stroke-width="0.13"/><path d="M-0.072435,0.996943h5.757536C4.474061,2.17512,3.282797,4.622495,3.379339,7.792893L-0.072435,2.910435v-1.913492Z" transform="matrix(6.971056 0 0 5.834907 53.648375 101.345372)" fill="#fff" stroke="#000" stroke-width="0.13"/><path d="M7.884581,6.047248L-8.219615,-6.047248L7.884581,6.047248Z" transform="matrix(5.697817 0 0 6.532867 229.067469 153.807308)" fill="none" stroke="#fff" stroke-width="1.25"/><path d="M-9.104514,6.047248L7.859784,-6.067248" transform="matrix(6.202501 0 0 6.873091 137.801771 156.002189)" fill="none" stroke="#fff" stroke-width="1.25"/><path d="M0,2.29527l4.272461-.000002v3.754467L0,3.775718L0,2.29527Z" transform="matrix(9.911111 0 0 16.009352 206.94057 72.359598)" fill="#fff" stroke-width="0"/><rect width="5.249023" height="7.31402" rx="0" ry="0" transform="matrix(6.040115 0 0 5.924904 182.233607 232.839549)" fill="#757575" stroke-width="0"/><rect width="276" height="276" rx="0" ry="0" transform="translate(12 12)" fill="none" stroke="#fff" stroke-width="10" stroke-linejoin="round"/><path d="M4.076901,11.842798c0,0,0-11.95685,0-11.95685h3.116055c0,0,0,11.95685,0,11.95685h-3.116055Z" transform="matrix(6.221599 0 0 2.5335 45.268623 44.100008)" fill="#fff" stroke="#000" stroke-width="0.13"/><line x1="20.438336" y1="-0.063946" x2="-14.090051" y2="-0.063946" transform="matrix(1.032395 0 0 1 63.510183 118.030923)" fill="none" stroke="#000"/></svg>
