<?xml version="1.0" encoding="UTF-8"?>
<svg width="311px" height="310px" viewBox="0 0 311 310" version="1.1" xmlns="http://www.w3.org/2000/svg" xmlns:xlink="http://www.w3.org/1999/xlink">
    <title>IMG_BTN_ATC_Tool_1</title>
    <g id="Page-1" stroke="none" stroke-width="1" fill="none" fill-rule="evenodd">
        <g id="IMG_BTN_ATC_Tool_1" transform="translate(5.5, 5)" stroke="#FFFFFF">
            <rect id="Rectangle" stroke-width="10" stroke-linejoin="round" x="0" y="0" width="300" height="300"></rect>
            <g id="5" transform="translate(77, 42)" fill="#FFFFFF" fill-rule="nonzero" stroke-width="4">
                <path d="M140.574219,-2 L140.574219,37.4492188 L53.4076385,37.4492188 L46.7879839,77.8036512 C51.6118954,74.8272743 55.50878,72.7857655 58.4719033,71.6645837 C64.7291722,69.3432938 72.3314808,68.1660156 81.2988281,68.1660156 C99.3889689,68.1660156 115.168022,74.2454929 128.635298,86.406242 C142.097954,98.5628193 148.923828,116.21289 148.923828,139.453125 C148.923828,159.553277 142.47723,177.505078 129.576568,193.305889 C116.633748,209.158335 97.3062525,217.185547 71.484375,217.185547 C50.7371109,217.185547 33.7206609,211.580036 20.3981835,200.461277 C6.55533117,188.90822 -0.995722924,172.372185 -2.12974106,150.783203 L43.2895585,150.783203 C44.7804075,160.205751 47.8356864,167.442115 52.5726873,172.425835 C56.928841,177.008871 63.3147152,179.201172 71.6308594,179.201172 C81.2569364,179.201172 88.6317466,175.875407 93.6842192,169.093259 C98.8683619,162.134365 101.417969,153.366953 101.417969,142.822266 C101.417969,132.43386 99.0169771,123.645657 94.1467272,116.48077 C89.4225561,109.530787 82.0265793,106.150391 72.0703125,106.150391 C67.2433252,106.150391 63.0628074,106.739824 59.5340489,107.947266 C53.1052269,110.257725 48.3660579,114.664855 45.3010722,121.150678 L4.33416116,119.230354 L19.7717343,-2 L140.574219,-2 Z" id="Path"></path>
            </g>
        </g>
    </g>
</svg>