<?xml version="1.0" encoding="UTF-8"?>
<svg id="Layer_1" data-name="Layer 1" xmlns="http://www.w3.org/2000/svg" viewBox="0 0 286 286">
  <defs>
    <style>
      .cls-1 {
        fill: none;
        stroke: #fff;
        stroke-linejoin: round;
        stroke-width: 10px;
      }

      .cls-2 {
        fill: orange;
      }

      .cls-3 {
        fill: #dfe4f3;
      }
    </style>
  </defs>
  <g id="Page-1">
    <g id="IMG_BTN_ATC_Tool_Measure" data-name="IMG BTN ATC Tool Measure">
      <rect id="Rectangle" class="cls-1" x="5" y="5" width="276" height="276"/>
    </g>
  </g>
  <g>
    <path class="cls-3" d="M139.78,124.48v30.68H31.54v-24.87l57.63-75.08h-53.25v-30.11h102.04v25.25l-55.96,74.13h57.77Z"/>
    <path class="cls-3" d="M199.9,157.16c-15.69,0-28.11-6.18-37.25-18.53-9.15-12.35-13.72-28.6-13.72-48.74s4.68-36.94,14.05-48.88c9.37-11.94,21.9-17.91,37.59-17.91s29.06,6.37,37.83,19.1c8.77,12.74,13.15,29.01,13.15,48.83s-4.72,36.27-14.15,48.21c-9.43,11.94-21.93,17.91-37.49,17.91ZM200.28,129.53c5.46,0,9.12-3.48,10.96-10.43,1.84-6.96,2.76-16.47,2.76-28.54,0-16.58-1.22-27.41-3.67-32.49-2.45-5.08-5.76-7.62-9.96-7.62-5.08,0-8.59,3.35-10.53,10.05-1.94,6.7-2.91,15.93-2.91,27.68,0,15.94.97,26.82,2.91,32.63,1.94,5.81,5.41,8.72,10.43,8.72Z"/>
  </g>
  <rect class="cls-3" x="11" y="162.26" width="264" height="16.88"/>
  <g>
    <path class="cls-2" d="M75.8,258.57h-10.83l-8.83-27.91h-14.41v27.91h-10.24v-67.91h24.65c6.86,0,11.89,1.85,15.11,5.55,3.22,3.7,4.83,8.48,4.83,14.35,0,8.72-3.41,14.73-10.24,18.01l9.95,30ZM41.75,220.86h12.74c3.69,0,6.44-.93,8.24-2.79,1.8-1.86,2.71-4.41,2.71-7.66,0-2.99-.89-5.4-2.66-7.24-1.78-1.84-4.26-2.76-7.45-2.76h-13.57v20.45Z"/>
    <path class="cls-2" d="M123.23,258.57h-36.93v-67.91h36.56v10.1h-26.31v18.41h21.15v9.85h-21.15v19.01h26.69v10.55Z"/>
    <path class="cls-2" d="M126.1,242.2l9.95-2.54c1.19,6.73,5.77,10.1,13.74,10.1,3.64,0,6.43-.86,8.39-2.59,1.96-1.72,2.94-3.86,2.94-6.42,0-1.86-.45-3.57-1.33-5.15s-2.79-2.81-5.7-3.71l-10.87-3.38c-3.72-1.16-6.47-2.48-8.24-3.96-1.78-1.48-3.2-3.56-4.27-6.24-1.07-2.69-1.6-5.55-1.6-8.61,0-6.07,1.89-10.94,5.66-14.6,3.77-3.66,8.6-5.5,14.49-5.5,4.88,0,9.25,1.28,13.09,3.83s6.29,6.17,7.35,10.84l-9.74,2.89c-1.5-5.14-5-7.71-10.49-7.71-3.19,0-5.63.8-7.31,2.39-1.68,1.59-2.52,3.62-2.52,6.07,0,3.88,2.64,6.6,7.91,8.16l9.66,2.88c5.86,1.76,9.78,4.35,11.78,7.79,2,3.43,3,7.22,3,11.37,0,6.67-2.1,11.92-6.31,15.75s-9.65,5.75-16.34,5.75c-5.63,0-10.57-1.41-14.8-4.23-4.23-2.82-7.04-7.21-8.43-13.18Z"/>
    <path class="cls-2" d="M217.7,258.57h-36.93v-67.91h36.56v10.1h-26.31v18.41h21.15v9.85h-21.15v19.01h26.69v10.55Z"/>
    <path class="cls-2" d="M246.39,258.57h-10.99v-57.41h-15.11v-10.5h41.22v10.5h-15.11v57.41Z"/>
  </g>
</svg>