<?xml version="1.0" encoding="UTF-8"?>
<svg id="Layer_1" data-name="Layer 1" xmlns="http://www.w3.org/2000/svg" viewBox="0 0 286 286">
  <defs>
    <style>
      .cls-1 {
        fill: none;
        stroke: #fff;
        stroke-linejoin: round;
        stroke-width: 10px;
      }

      .cls-2 {
        fill: #dfe4f4;
      }
    </style>
  </defs>
  <g id="Page-1">
    <g id="IMG_BTN_ATC_Tool_Measure" data-name="IMG BTN ATC Tool Measure">
      <rect id="Rectangle" class="cls-1" x="5" y="5" width="276" height="276"/>
    </g>
  </g>
  <g>
    <path class="cls-2" d="M118.85,119.77c-2.93-12.35-12.35-19.44-26.08-19.44-21.22,0-33.33,15.59-33.33,42.59s12.19,42.82,32.56,42.82,23.77-7.33,27.16-22.76h30.71c-3.47,29.17-25.31,47.22-57.1,47.22s-62.27-26.23-62.27-67.28,23.92-67.13,62.11-67.13,52.31,16.59,55.71,43.98c0,0-29.48,0-29.48,0Z"/>
    <path class="cls-2" d="M227.57,113.22c-1.7-10.8-6.56-16.05-14.81-16.05-13.27,0-19.68,11.19-20.22,34.88,7.56-6.02,14.51-8.33,23.77-8.33,23.53,0,39.2,16.59,39.2,42.05s-16.98,43.98-42.59,43.98-47.22-22.53-47.22-65.74,16.36-66.74,48.23-66.74,36.65,12.96,39.35,35.88h-25.46l-.23.08ZM194.62,166.84c0,13.5,6.56,21.76,17.59,21.76s17.59-8.33,17.59-21.45-6.56-22.22-17.59-22.22-17.59,8.33-17.59,21.76v.15Z"/>
  </g>
</svg>