<?xml version="1.0" encoding="UTF-8"?>
<svg width="311px" height="310px" viewBox="0 0 311 310" version="1.1" xmlns="http://www.w3.org/2000/svg" xmlns:xlink="http://www.w3.org/1999/xlink">
    <title>IMG_BTN_ATC_Tool_1</title>
    <g id="Page-1" stroke="none" stroke-width="1" fill="none" fill-rule="evenodd">
        <g id="IMG_BTN_ATC_Tool_1" transform="translate(5.5, 5)" stroke="#FFFFFF">
            <rect id="Rectangle" stroke-width="10" stroke-linejoin="round" x="0" y="0" width="300" height="300"></rect>
            <g id="6" transform="translate(77, 40)" fill="#FFFFFF" fill-rule="nonzero" stroke-width="4">
                <path d="M75.2929688,-2 C95.5843687,-2 111.723906,3.25930239 123.767191,13.6466358 C136.377118,24.5226977 143.271491,39.1355069 144.389418,57.5175781 L98.4522534,57.5175781 C99.1306103,53.8902868 97.9046857,49.8421034 94.9966446,45.3198474 C90.8696502,39.2458227 84.617331,36.2773437 76.3183594,36.2773438 C70.0188706,36.2773438 64.6152075,38.0230555 60.1244632,41.5612177 C55.5382654,45.1745857 51.9151156,50.6181477 49.1849345,57.837026 C46.4816988,65.1069463 44.5390875,75.4237455 43.325947,88.7769785 C47.7548072,84.5151024 52.6883234,81.262442 58.1212381,79.0116631 C65.1804408,76.0871362 73.2461437,74.6113281 82.3242188,74.6113281 C101.771189,74.6113281 117.702668,81.2343146 130.141781,94.4288395 C142.539512,107.579469 148.777344,124.383137 148.777344,144.873047 C148.777344,165.164258 142.722959,183.053201 130.629246,198.545149 C118.474616,214.115129 99.6349975,222.019531 73.9746094,222.019531 C60.2128567,222.019531 48.2673879,219.1222 38.1250857,213.373222 C27.9630802,207.613075 19.5973932,198.985529 13.0530717,187.457441 C3.0465495,169.72311 -2,146.845785 -2,118.798828 C-2,102.478304 -1.30775112,89.2059906 0.0687963892,78.9802111 C2.55097376,60.6120986 7.38632226,45.3306673 14.5375861,33.1139534 C20.7567057,22.5815735 28.9085444,14.1075336 38.9891826,7.6880227 C49.1029193,1.24743416 61.198446,-2 75.2929688,-2 Z M73.0957031,112.009766 C66.4343369,112.009766 60.5460097,114.011813 55.4231853,118.03682 C47.641858,124.058085 43.8945312,133.840954 43.8945312,147.216797 C43.8945312,158.099685 46.7786581,167.007129 52.6459095,173.898821 C58.3985018,180.655835 65.7031302,184.035156 74.5605469,184.035156 C83.1548841,184.035156 89.9336564,180.824373 94.8693529,174.349102 C99.9541451,167.678228 102.443359,159.011182 102.443359,148.388672 C102.443359,136.604888 99.6555545,127.529171 93.8883793,121.250392 C88.2342305,115.094665 81.3053768,112.009766 73.0957031,112.009766 Z" id="Shape"></path>
            </g>
        </g>
    </g>
</svg>