<?xml version="1.0" encoding="UTF-8"?>
<svg width="286px" height="286px" viewBox="0 0 286 286" version="1.1" xmlns="http://www.w3.org/2000/svg" xmlns:xlink="http://www.w3.org/1999/xlink">
    <title>IMG_BTN_ATC_Tool_Measure</title>
    <g id="Page-1" stroke="none" stroke-width="1" fill="none" fill-rule="evenodd">
        <g id="IMG_BTN_ATC_Tool_Measure" transform="translate(5, 5)">
            <path d="M44.3783751,191.373199 L233.67338,191.373199 C249.244799,198.815523 255.86372,232.403528 250.468282,254.559574 L25.257603,254.559574 C20.480248,231.358411 26.458984,199.765224 44.3783751,191.373199 Z" id="Path" fill="#30FF00" fill-rule="nonzero"></path>
            <path d="M59.7448415,163.498253 C59.7448415,163.498253 218.449551,163.498253 218.449551,163.498253 C218.449551,163.498253 226.249958,175.278277 226.226143,187.058309 L49.7738977,187.058309 C49.7398172,175.278285 59.7448415,163.498253 59.7448415,163.498253 Z" id="Path" fill="#FFFFFF" fill-rule="nonzero"></path>
            <path d="M128.454515,68.1171685 C128.454515,68.1171685 128.720971,13.499086 128.720971,13.499086 L147.54549,13.499086 C147.54549,13.499086 147.54549,68.1171685 147.54549,68.1171685 L128.454515,68.1171685 Z" id="Path" stroke="#000000" stroke-width="0.720580431" fill="#FFFFFF" fill-rule="nonzero" transform="translate(138, 40.8081) scale(-1, 1) translate(-138, -40.8081)"></path>
            <path d="M128.803944,67.717079 C136.082718,67.717079 128.803944,67.717079 147.196056,67.717079 C147.196056,80.6477842 168.902236,67.717079 168.902236,93.5784429 L107.097765,93.5784429 C107.097765,67.717079 128.803953,80.6477842 128.803944,67.717079 Z" id="Path" stroke="#000000" stroke-width="1.17841616" fill="#FFFFFF" fill-rule="nonzero"></path>
            <polygon id="Path" stroke="#000000" stroke-width="1.58193522" fill="#FFFFFF" fill-rule="nonzero" points="187.51841 93.5784612 137.544794 145.46659 88.4815905 93.5784427 187.51841 93.5784612"></polygon>
            <path d="M105.410074,93.5784427 L151.332993,93.5784427 C141.673567,100.532001 134.259338,115.345694 134.259338,133.687895 L105.410074,104.871804 L105.410074,93.5784427 Z" id="Path" stroke="#000000" stroke-width="0.912096177" fill="#C1C1C1" fill-rule="nonzero"></path>
            <line x1="98.8808585" y1="104.841806" x2="142.289973" y2="104.841806" id="Path" stroke="#000000" stroke-width="0.515483863"></line>
            <path d="M163.710547,85.164802 C138.693049,99.0412292 128.371534,125.310939 137.582776,145.46659" id="Path" stroke="#000000" stroke-width="1.60137409"></path>
            <rect id="Rectangle" stroke="#000000" stroke-width="1.1809962" fill="#FFFFFF" fill-rule="nonzero" x="98.880861" y="85.1648" width="78.2382794" height="8.41364316"></rect>
            <rect id="Rectangle" stroke="#FFFFFF" stroke-width="10" stroke-linejoin="round" x="0" y="0" width="276" height="276"></rect>
        </g>
    </g>
</svg>