<?xml version="1.0" encoding="UTF-8"?>
<svg id="Layer_1" data-name="Layer 1" xmlns="http://www.w3.org/2000/svg" viewBox="0 0 286 286">
  <defs>
    <style>
      .cls-1 {
        fill: none;
        stroke: #fff;
        stroke-linejoin: round;
        stroke-width: 10px;
      }

      .cls-2 {
        fill: #dfe4f4;
      }
    </style>
  </defs>
  <g id="Page-1">
    <g id="IMG_BTN_ATC_Tool_Measure" data-name="IMG BTN ATC Tool Measure">
      <rect id="Rectangle" class="cls-1" x="5" y="5" width="276" height="276"/>
    </g>
  </g>
  <g>
    <path class="cls-2" d="M118.22,119.94c-2.91-12.26-12.26-19.31-25.89-19.31-21.07,0-33.09,15.47-33.09,42.29s12.1,42.52,32.33,42.52,23.6-7.28,26.97-22.6h30.49c-3.45,28.96-25.13,46.88-56.69,46.88s-61.82-26.05-61.82-66.8,23.75-66.65,61.67-66.65,51.94,16.47,55.31,43.67c0,0-29.26,0-29.26,0Z"/>
    <path class="cls-2" d="M194.67,126.07c6.89-2.45,12.26-3.45,19.31-3.45,25.13,0,41.52,16.7,41.52,42.13s-17.77,44.59-45.97,44.59-41.52-13.79-44.28-38.3h27.58c1.38,10.11,7.51,15.93,16.85,15.93s18.54-8.81,18.54-22.06-6.89-20.68-18-20.68-10.11,1.92-14.71,6.13h-26.43l7.81-69.87h72.4v22.37h-52.09l-2.68,23.14.15.08Z"/>
  </g>
</svg>