<?xml version="1.0" encoding="UTF-8"?>
<svg id="Layer_1" data-name="Layer 1" xmlns="http://www.w3.org/2000/svg" viewBox="0 0 286 286">
  <defs>
    <style>
      .cls-1 {
        fill: none;
        stroke: #fff;
        stroke-linejoin: round;
        stroke-width: 10px;
      }

      .cls-2 {
        fill: #dfe4f4;
      }
    </style>
  </defs>
  <g id="Page-1">
    <g id="IMG_BTN_ATC_Tool_Measure" data-name="IMG BTN ATC Tool Measure">
      <rect id="Rectangle" class="cls-1" x="5" y="5" width="276" height="276"/>
    </g>
  </g>
  <g>
    <path class="cls-2" d="M118.55,119.85c-2.92-12.3-12.3-19.38-25.99-19.38-21.15,0-33.22,15.53-33.22,42.45s12.15,42.68,32.45,42.68,23.68-7.31,27.07-22.68h30.6c-3.46,29.07-25.22,47.06-56.9,47.06s-62.06-26.14-62.06-67.05,23.84-66.9,61.9-66.9,52.14,16.53,55.52,43.83c0,0-29.37,0-29.37,0Z"/>
    <path class="cls-2" d="M164.45,180.37v-28.84l42.14-71.36h34.45v78.43h14.46v21.68h-14.46v26.76h-26.53v-26.76h-49.98l-.08.08ZM214.44,133.08c0-5,0-10.15.15-15.53,0-4.23,0-6.15.38-9.84-1.92,3.08-3.69,6-5.38,9.07-1.92,3.23-3.84,6.77-4,6.92-1.15,2.31-2.46,4.77-3.84,7.07l-16.15,27.84h28.84v-25.53Z"/>
  </g>
</svg>