<?xml version="1.0" encoding="UTF-8"?>
<svg width="311px" height="310px" viewBox="0 0 311 310" version="1.1" xmlns="http://www.w3.org/2000/svg" xmlns:xlink="http://www.w3.org/1999/xlink">
    <title>IMG_BTN_ATC_Tool_1</title>
    <g id="Page-1" stroke="none" stroke-width="1" fill="none" fill-rule="evenodd">
        <g id="IMG_BTN_ATC_Tool_1" transform="translate(5.5, 5)" stroke="#FFFFFF">
            <rect id="Rectangle" stroke-width="10" stroke-linejoin="round" x="0" y="0" width="300" height="300"></rect>
            <g id="2" transform="translate(77, 43)" fill="#FFFFFF" fill-rule="nonzero" stroke-width="4">
                <path d="M71.484375,-2 C94.5374474,-2 112.845432,4.44883396 126.465539,17.2176834 C140.138757,30.0363259 147.019531,46.9885091 147.019531,68.1152344 C147.019531,84.2961925 142.190825,98.6659772 132.550095,111.218959 C126.306238,119.444992 116.065037,128.630506 101.79318,138.739736 L85.0936946,150.60516 C74.7170456,157.97549 67.6110084,163.306396 63.7803261,166.603692 C60.9991171,168.997644 58.5492975,171.683199 56.4306306,174.660156 L147.458984,174.660156 L147.458984,215.427734 L-2.03475361,215.427734 C-1.88864249,199.097523 1.4633993,184.233322 8.00320154,170.827636 C14.0818594,156.443869 28.3094827,141.160191 50.8379154,125.082634 C69.9226715,111.422986 82.2868078,101.650924 87.9065532,95.7404116 C96.2008543,86.8824928 100.392578,77.1966154 100.392578,66.6503906 C100.392578,58.1902321 98.0828891,51.1371807 93.3874962,45.5211225 C88.7643486,39.9914753 82.1205804,37.3027344 73.5351562,37.3027344 C67.5750915,37.3027344 62.5546621,38.3829439 58.492912,40.6088747 C54.5315586,42.7797859 51.5097527,46.0446456 49.4089592,50.3803171 C46.7124453,55.9730868 45.2351293,65.0553433 44.8495809,77.5859375 L0.278358589,77.5859375 C0.794610989,58.1978537 4.19162299,42.6294295 10.3876592,30.8569619 C16.1510182,19.8863576 24.1593726,11.668045 34.3947919,6.18388212 C44.5408784,0.747583879 56.8985264,-2 71.484375,-2 Z" id="Path"></path>
            </g>
        </g>
    </g>
</svg>