<?xml version="1.0" encoding="UTF-8"?>
<svg id="Layer_1" data-name="Layer 1" xmlns="http://www.w3.org/2000/svg" viewBox="0 0 286 286">
  <defs>
    <style>
      .cls-1 {
        fill: #00bfff;
      }

      .cls-2 {
        fill: none;
        stroke: #fff;
        stroke-linejoin: round;
        stroke-width: 10px;
      }
    </style>
  </defs>
  <g id="Page-1">
    <g id="IMG_BTN_ATC_Tool_Measure" data-name="IMG BTN ATC Tool Measure">
      <rect id="Rectangle" class="cls-2" x="5" y="5" width="276" height="276"/>
    </g>
    <path class="cls-1" d="M16.45,278.66h254.52c1.07,0,1.78-.81,1.78-2.03s-.71-2.03-1.78-2.03l-71.91-13.37,67.99-25.53c1.07-.41,1.42-1.62,1.42-2.43s-1.07-2.03-2.14-1.62l-81.87,12.97,58.73-36.88c.71-.41,1.07-1.62.71-2.84s-1.42-1.62-2.49-1.22l-82.94,33.64,30.61-55.93c.36-.81.36-2.03-.36-2.84s-1.78-.41-2.49.41l-37.02,47.82V7.34h-14.59v219.05l-34.17-47.82c-.71-.81-1.78-1.22-2.49-.41s-1.07,2.03-.36,2.84l26.7,55.93-79.02-33.64c-1.07-.41-2.14,0-2.49,1.22s0,2.43.71,2.84l58.73,36.88-81.87-12.97c-1.07,0-1.78.41-2.14,1.62-.36,1.22.36,2.03,1.42,2.43l67.99,25.53-71.91,13.37c-1.07,0-1.78,1.22-1.42,2.43s1.07,2.03,2.14,2.03h.01Z"/>
  </g>
</svg>