<?xml version="1.0" encoding="UTF-8"?>
<svg id="Layer_1" data-name="Layer 1" xmlns="http://www.w3.org/2000/svg" viewBox="0 0 286 286">
  <defs>
    <style>
      .cls-1 {
        stroke: #fff;
        stroke-linejoin: round;
        stroke-width: 10px;
      }

      .cls-1, .cls-2 {
        fill: none;
      }

      .cls-3 {
        fill: #dfe4f4;
      }
    </style>
  </defs>
  <g id="IMG_BTN_ATC_Tool_Measure" data-name="IMG BTN ATC Tool Measure">
    <rect id="Rectangle" class="cls-1" x="5" y="5" width="276" height="276"/>
  </g>
  <path class="cls-3" d="M127.38,267.93c-4.98-4.71-12.93-14.93-18.98-17.12s-12.56-.17-18.55,0c-15.1.41-30.27-.31-45.37-.06-5.93-.8-5.97-8.79.07-9.8,20.41.89,42.36-1.53,62.6-.12,11.6.81,20.46,15.48,28.96,22.49,6.96,5.75,9.36,4.46,15.77-1.06,8.46-7.28,15.68-20.58,27.86-21.43,19.87-1.39,41.36,1.08,61.4.02,6.45.73,6.46,9.44,0,9.95-17.58-.14-35.18.17-52.76.02-1.8-.02-3.51-.57-5.62-.47-11.98.6-21.05,15.3-29.82,22.49-11.3,9.26-16.82,3.38-25.56-4.89Z"/>
  <path class="cls-3" d="M174.06,159.74v69.61c0,3.78-3.23,7.82-5.59,10.53-6.46,7.42-14.74,13.83-21.47,21.06-1.04.6-3.72.63-4.93.4-2.05-.38-11.24-10.34-13.44-12.52-3.69-3.67-14.56-12.82-14.56-18.12v-70.95h-18.57c-5.23,0-9.92-5.05-11.2-9.83-1.48-5.52-5.16-22.82-5.16-27.99,0-7.94,4.13-17.95,4.9-26.02.08-.85.12-1.7.07-2.56-3.72-1.57-6.26-4.59-7.19-8.57l.06-59.05c.62-5.19,5.76-9.22,10.9-9.25h112.83c5.81.46,10.02,4.74,10.52,10.52,1.56,18.14-1.19,38.49-.02,56.86-.49,4.9-3.55,7.54-7.53,9.89l5.31,25.91c-2.72,9.43-2.59,22.97-5.74,31.9-1.37,3.9-6.4,8.19-10.61,8.19h-18.57ZM86.79,26.78v17.01h114.13v-17.01h-114.13ZM200.92,54.09h-114.13v11.19h114.13v-11.19ZM200.92,70.67h-114.13v12.97h114.13v-12.97ZM193.2,94.49l-97.81-.22-1.35,1.79c-.39,8.76-5.3,19.42-4.45,27.98.77,7.81,3.66,16.39,4.85,24.25l.84.95,95.58.24c1.16,0,2.67-.23,2.87-1.61.46-8.66,4.99-19.84,4.98-28.18,0-4.17-2.77-14.44-3.84-19.03-.29-1.23-1.06-5.53-1.68-6.15ZM163.77,159.74h-24.62l24.62,8.95v-8.95ZM163.77,179.44l-39.83-13.88v13.65l39.83,15v-14.77ZM163.77,204.51l-38.8-13.81-1.04.61v13.43l39.83,14.55v-14.77ZM144.52,249.72l18.81-19.46-38.72-14.54-.7,1.11c.69,4.53.92,9.19.7,13.64,4.61,4.65,9.57,8.93,14.11,13.65.79.82,4.85,6.23,5.8,5.6ZM200.92,43.79h-114.13v-17.01h114.13v17.01ZM200.92,65.28h-114.13v-11.19h114.13v11.19Z"/>
  <path class="cls-2" d="M193.2,94.49c.62.62,1.39,4.92,1.68,6.15,1.07,4.6,3.84,14.86,3.84,19.03,0,8.35-4.52,19.52-4.98,28.18-.2,1.38-1.71,1.6-2.87,1.61l-95.58-.24-.84-.95c-1.19-7.85-4.08-16.44-4.85-24.25-.84-8.56,4.07-19.21,4.45-27.98l1.35-1.79,97.81.22Z"/>
  <rect class="cls-2" x="86.79" y="75.58" width="114.13" height="8.06"/>
  <path class="cls-2" d="M144.52,249.72c-.95.63-5.01-4.78-5.8-5.6-4.54-4.73-9.5-9-14.11-13.65.22-4.45-.01-9.11-.7-13.64l.7-1.11,38.72,14.54-18.81,19.46Z"/>
  <polygon class="cls-2" points="163.77 179.44 163.77 194.21 123.93 179.21 123.93 165.56 163.77 179.44"/>
  <polygon class="cls-2" points="163.77 204.51 163.77 219.28 123.93 204.73 123.93 191.3 124.97 190.69 163.77 204.51"/>
  <polygon class="cls-2" points="163.77 159.74 163.77 168.69 139.15 159.74 163.77 159.74"/>
</svg>